<svg width="512" height="512" viewBox="0 0 512 512" fill="none" xmlns="http://www.w3.org/2000/svg">
  <rect width="512" height="512" rx="128" fill="url(#paint0_linear)"/>
  <path d="M256 128C185.3 128 128 185.3 128 256C128 326.7 185.3 384 256 384C326.7 384 384 326.7 384 256C384 185.3 326.7 128 256 128ZM256 344C207.4 344 168 304.6 168 256C168 207.4 207.4 168 256 168C304.6 168 344 207.4 344 256C344 304.6 304.6 344 256 344Z" fill="white" fill-opacity="0.2"/>
  <path d="M300 210L210 330M210 210L300 330" stroke="white" stroke-width="32" stroke-linecap="round"/>
  <circle cx="256" cy="256" r="40" fill="white"/>
  <defs>
    <linearGradient id="paint0_linear" x1="0" y1="0" x2="512" y2="512" gradientUnits="userSpaceOnUse">
      <stop stop-color="#8B5CF6"/>
      <stop offset="1" stop-color="#EC4899"/>
    </linearGradient>
  </defs>
</svg>
